<svg width="40" height="40" viewBox="0 0 40 40" fill="none" xmlns="http://www.w3.org/2000/svg">
<path d="M29.1667 5.83331H32.0334C33.8248 5.83331 34.7204 5.83331 35.2769 6.38981C35.8334 6.94631 35.8334 7.84198 35.8334 9.63331V12.5" stroke="#1D2130" stroke-linecap="round"/>
<path d="M29.1667 34.1667H32.0334C33.8248 34.1667 34.7204 34.1667 35.2769 33.6102C35.8334 33.0537 35.8334 32.158 35.8334 30.3667V27.5" stroke="#1D2130" stroke-linecap="round"/>
<path d="M10.8333 5.83331H7.96658C6.17525 5.83331 5.27958 5.83331 4.72308 6.38981C4.16659 6.94631 4.16659 7.84198 4.16659 9.63331V12.5" stroke="#1D2130" stroke-linecap="round"/>
<path d="M10.8333 34.1667H7.96658C6.17525 34.1667 5.27958 34.1667 4.72308 33.6102C4.16659 33.0537 4.16659 32.158 4.16659 30.3667V27.5" stroke="#1D2130" stroke-linecap="round"/>
<path d="M11.7507 26.1181C12.5746 24.929 13.767 23.9312 15.2168 23.2337C16.6666 22.5362 18.3166 22.1667 20 22.1667C21.6834 22.1667 23.3334 22.5362 24.7832 23.2337C26.233 23.9312 27.4254 24.929 28.2493 26.1181" stroke="#1D2130" stroke-linecap="round"/>
<circle cx="20" cy="15" r="4.5" stroke="#1D2130" stroke-linecap="round"/>
</svg>
